<mxfile host="app.diagrams.net" modified="2024-04-25T12:27:50.741Z" agent="Mozilla/5.0 (Windows NT 10.0; Win64; x64) AppleWebKit/537.36 (KHTML, like Gecko) Chrome/124.0.0.0 Safari/537.36" etag="x5NZZNXfqCc0cK-X-MqD" version="24.3.0" type="github">
  <diagram name="Page-1" id="2YBvvXClWsGukQMizWep">
    <mxGraphModel dx="1434" dy="756" grid="0" gridSize="10" guides="1" tooltips="1" connect="1" arrows="1" fold="1" page="1" pageScale="1" pageWidth="850" pageHeight="1100" background="#ffffff" math="0" shadow="1">
      <root>
        <mxCell id="0" />
        <mxCell id="1" parent="0" />
        <mxCell id="MQnaWEzC_fgd22LS17Cb-1" value="&lt;div&gt;Patient&lt;/div&gt;" style="shape=umlActor;verticalLabelPosition=bottom;verticalAlign=top;html=1;outlineConnect=0;" vertex="1" parent="1">
          <mxGeometry x="57" y="119" width="78" height="178" as="geometry" />
        </mxCell>
        <mxCell id="MQnaWEzC_fgd22LS17Cb-5" value="Accéeder au profile&lt;div&gt;&lt;br&gt;&lt;/div&gt;" style="ellipse;whiteSpace=wrap;html=1;" vertex="1" parent="1">
          <mxGeometry x="296" y="128" width="171" height="101" as="geometry" />
        </mxCell>
        <mxCell id="MQnaWEzC_fgd22LS17Cb-10" value="&lt;div&gt;Scaner code QR&lt;/div&gt;" style="ellipse;whiteSpace=wrap;html=1;" vertex="1" parent="1">
          <mxGeometry x="595" y="121" width="171" height="101" as="geometry" />
        </mxCell>
        <mxCell id="MQnaWEzC_fgd22LS17Cb-11" value="" style="endArrow=block;dashed=1;endFill=0;endSize=12;html=1;rounded=0;sketch=1;hachureGap=4;jiggle=2;curveFitting=1;fontFamily=Architects Daughter;fontSource=https%3A%2F%2Ffonts.googleapis.com%2Fcss%3Ffamily%3DArchitects%2BDaughter;curved=1;" edge="1" parent="1">
          <mxGeometry width="160" relative="1" as="geometry">
            <mxPoint x="467" y="172" as="sourcePoint" />
            <mxPoint x="616" y="176.5" as="targetPoint" />
            <Array as="points">
              <mxPoint x="511" y="175" />
              <mxPoint x="593" y="174.5" />
            </Array>
          </mxGeometry>
        </mxCell>
        <mxCell id="MQnaWEzC_fgd22LS17Cb-12" value="&amp;lt;&amp;lt;include&amp;gt;&amp;gt;" style="text;html=1;align=center;verticalAlign=middle;whiteSpace=wrap;rounded=0;fontFamily=Architects Daughter;fontSource=https%3A%2F%2Ffonts.googleapis.com%2Fcss%3Ffamily%3DArchitects%2BDaughter;" vertex="1" parent="1">
          <mxGeometry x="532" y="130" width="60" height="30" as="geometry" />
        </mxCell>
        <mxCell id="MQnaWEzC_fgd22LS17Cb-13" value="Consultation des données" style="ellipse;whiteSpace=wrap;html=1;" vertex="1" parent="1">
          <mxGeometry x="306" y="297" width="171" height="101" as="geometry" />
        </mxCell>
        <mxCell id="MQnaWEzC_fgd22LS17Cb-19" value="" style="rounded=0;sketch=1;hachureGap=4;jiggle=2;curveFitting=1;orthogonalLoop=1;jettySize=auto;html=1;fontFamily=Architects Daughter;fontSource=https%3A%2F%2Ffonts.googleapis.com%2Fcss%3Ffamily%3DArchitects%2BDaughter;" edge="1" parent="1" source="MQnaWEzC_fgd22LS17Cb-14" target="MQnaWEzC_fgd22LS17Cb-13">
          <mxGeometry relative="1" as="geometry" />
        </mxCell>
        <mxCell id="MQnaWEzC_fgd22LS17Cb-14" value="Récupération des rapports" style="ellipse;whiteSpace=wrap;html=1;" vertex="1" parent="1">
          <mxGeometry x="595" y="259" width="171" height="101" as="geometry" />
        </mxCell>
        <mxCell id="MQnaWEzC_fgd22LS17Cb-20" style="rounded=0;sketch=1;hachureGap=4;jiggle=2;curveFitting=1;orthogonalLoop=1;jettySize=auto;html=1;fontFamily=Architects Daughter;fontSource=https%3A%2F%2Ffonts.googleapis.com%2Fcss%3Ffamily%3DArchitects%2BDaughter;endArrow=none;endFill=0;startArrow=classic;startFill=1;" edge="1" parent="1" source="MQnaWEzC_fgd22LS17Cb-18" target="MQnaWEzC_fgd22LS17Cb-13">
          <mxGeometry relative="1" as="geometry" />
        </mxCell>
        <mxCell id="MQnaWEzC_fgd22LS17Cb-18" value="Visualisation des graphes" style="ellipse;whiteSpace=wrap;html=1;" vertex="1" parent="1">
          <mxGeometry x="604" y="397" width="171" height="101" as="geometry" />
        </mxCell>
      </root>
    </mxGraphModel>
  </diagram>
</mxfile>
